<svg xmlns="http://www.w3.org/2000/svg" xmlns:svg="http://www.w3.org/2000/svg" xmlns:xlink="http://www.w3.org/1999/xlink" id="图层_1" x="0" y="0" version="1.1" viewBox="0 0 1000 580" xml:space="preserve" style="enable-background:new 0 0 1000 580"><style type="text/css">.st0{fill:#fff}.st1{fill:url(#polygon12_1_)}.st2{fill:url(#polygon21_1_)}.st3{opacity:.27;fill:url(#circle42_1_);enable-background:new}.st4{fill:url(#polygon58_1_)}.st5{fill:#444;stroke-width:.834;stroke-miterlimit:10}.st5,.st6{stroke:#fff}.st6,.st7,.st8{stroke-miterlimit:10}.st6,.st7{fill:none;stroke-width:1.1033}.st7{stroke:#353535}.st8{fill:#fff;stroke:#444;stroke-width:.834}.st10{stroke:#fff}.st10,.st11,.st12,.st9{stroke-miterlimit:10}.st9{fill:#444;stroke:#fff;stroke-width:.8485}.st10,.st11{fill:none;stroke-width:1.1226}.st11{stroke:#353535}.st12{fill:#fff;stroke:#444;stroke-width:.8485}.st13{fill:#353535}.st14{fill:#444;stroke-width:.9321;stroke-miterlimit:10}.st14,.st15{stroke:#fff}.st15,.st16,.st17{stroke-miterlimit:10}.st15,.st16{fill:none;stroke-width:1.046}.st16{stroke:#353535}.st17{fill:#fff;stroke:#444;stroke-width:.7906}.st18{opacity:.59;fill:#e0e0e0;enable-background:new}.st19,.st20,.st21{stroke:#444;stroke-miterlimit:10}.st19{fill:#fff;stroke-width:2}.st20,.st21{fill:none}.st20{stroke-width:2}.st21{stroke-linecap:round;stroke-linejoin:round}.st22{enable-background:new}.st23{fill:#4d4d4d}</style><rect id="BG_2_" width="1012.9" height="600.4" x="-1" y="-9.5" class="st0"/><linearGradient id="polygon12_1_" x1="1014.758" x2="1077.592" y1="90.201" y2="356.702" gradientTransform="matrix(0.9556 0.295 -0.2974 0.9605 -400.3649 -336.724)" gradientUnits="userSpaceOnUse"><stop offset=".048" style="stop-color:#9fa0a0"/><stop offset=".523" style="stop-color:#d7d8d8;stop-opacity:.4381"/><stop offset=".893" style="stop-color:#fff;stop-opacity:0"/></linearGradient><polygon id="polygon12" points="608.7 371.9 511.9 134.7 490.9 134.1 430.7 377.1" class="st1"/><linearGradient id="polygon21_1_" x1="197.948" x2="282.058" y1="434.897" y2="791.639" gradientTransform="matrix(0.9983 -5.887031e-02 5.887031e-02 0.9983 28.0536 -430.7623)" gradientUnits="userSpaceOnUse"><stop offset=".048" style="stop-color:#898989"/><stop offset=".587" style="stop-color:#d7d7d7;stop-opacity:.3616"/><stop offset=".893" style="stop-color:#fff;stop-opacity:0"/></linearGradient><polygon id="polygon21" points="325.4 155.1 289.2 163.9 291.9 437 480.9 450.4" class="st2"/><radialGradient id="circle42_1_" cx="836.3" cy="506.599" r="65.713" gradientTransform="matrix(1 0 0 1 12 -19.0997)" gradientUnits="userSpaceOnUse"><stop offset="0" style="stop-color:#fff"/><stop offset="1" style="stop-color:#fff;stop-opacity:0"/></radialGradient><circle id="circle42" cx="848.3" cy="487.5" r="68.3" class="st3"/><linearGradient id="polygon58_1_" x1="1863.538" x2="1929.72" y1="415.469" y2="696.17" gradientTransform="matrix(0.8607 0.5092 -0.5092 0.8607 -635.7186 -1225.6498)" gradientUnits="userSpaceOnUse"><stop offset=".048" style="stop-color:#898989"/><stop offset=".587" style="stop-color:#d7d7d7;stop-opacity:.3616"/><stop offset=".893" style="stop-color:#fff;stop-opacity:0"/></linearGradient><polygon id="polygon58" points="547.4 383 763.1 428.2 713.7 163.4 683.8 156" class="st4"/><g id="g94" transform="rotate(9.0573675,796.06564,263.99283)"><path id="path60" d="M520,160.2l-75.8,10.4c-5.6,0.8-10.8-3.2-11.5-8.7l0,0 c-0.8-5.6,3.2-10.8,8.7-11.5l75.8-10.4c5.6-0.8,10.8,3.2,11.5,8.7l0,0C529.5,154.3,525.6,159.4,520,160.2L520,160.2z" class="st5"/><ellipse id="circle62" cx="448.4" cy="159.6" class="st6" rx="5.6" ry="5.6" transform="matrix(0.1574 -0.9875 0.9875 0.1574 220.2397 577.3303)"/><ellipse id="circle64" cx="470.6" cy="156.6" class="st6" rx="5.6" ry="5.6" transform="matrix(0.1574 -0.9875 0.9875 0.1574 241.8959 596.7076)"/><ellipse id="circle66" cx="472.7" cy="95.5" class="st7" rx="3.9" ry="3.9" transform="matrix(0.1574 -0.9875 0.9875 0.1574 304.0202 547.2599)"/><ellipse id="circle68" cx="493.2" cy="153.5" class="st6" rx="5.6" ry="5.6" transform="matrix(0.1574 -0.9875 0.9875 0.1574 263.9857 616.4264)"/><ellipse id="circle70" cx="515.1" cy="150.3" class="st6" rx="5.6" ry="5.6" transform="matrix(0.1574 -0.9875 0.9875 0.1574 285.6079 635.2634)"/><path id="path72" d="M510,139.5l-61.3,8.4l-0.4-2.8c-0.2-1.5,0.8-2.9,2.3-3.1 l55.7-7.7c1.5-0.2,2.9,0.8,3.1,2.3L510,139.5z" class="st8"/><path id="path74" d="M519.9,161.7L444.9,172l0.3,2.4c0.3,1.7,1.8,2.8,3.4,2.6 l69.1-9.5c1.7-0.3,2.8-1.8,2.6-3.4L519.9,161.7z" class="st8"/><path id="path76" d="M508.2,170.4l-50.5,6.9l0.4,3c0.2,1.3,1.5,2.3,2.8,2.2l45.5-6.3 c1.3-0.2,2.3-1.5,2.2-2.8L508.2,170.4z" class="st7"/><path id="path78" d="M499.5,133.7l-43.7,6l-1.8-13.2c-1-7.3,4.1-14,11.3-15l17.3-2.4 c7.3-1,14,4.1,15,11.3L499.5,133.7z" class="st7"/><line id="line80" x1="473.5" x2="474.6" y1="100.6" y2="109.1" class="st7"/><line id="line82" x1="471.6" x2="464.5" y1="119.4" y2="131.7" class="st7"/><line id="line84" x1="485.9" x2="478.7" y1="117.9" y2="130.2" class="st7"/><path id="path86" d="M470.7,182.8L467,193c-0.2,0.5,0.5,0.9,0.8,0.5l10.5-11.3 c0.3-0.3,0-0.9-0.4-0.8l-6.8,1C471,182.5,470.8,182.6,470.7,182.8z" class="st8"/><path id="path88" d="M460.7,184l-6.3,9.2c-0.3,0.5,0.3,1,0.8,0.7l12.8-10.1 c0.4-0.3,0.2-0.9-0.4-0.9l-6.6,0.9C460.9,183.9,460.8,184,460.7,184L460.7,184z" class="st8"/><path id="path90" d="M496.6,179l6.3,8.8c0.3,0.4-0.2,1-0.7,0.8l-13.2-8 c-0.4-0.3-0.3-0.8,0.2-0.9l6.8-0.8C496.3,178.8,496.5,178.9,496.6,179L496.6,179z" class="st8"/><path id="path92" d="M506.7,177.5l8.5,7.2c0.4,0.3,0,1.1-0.5,0.8l-15.1-6.3 c-0.5-0.2-0.4-0.9,0.1-0.9l6.6-0.9C506.4,177.4,506.5,177.4,506.7,177.5L506.7,177.5z" class="st8"/></g><g id="g130" transform="translate(-131.09867,-443.26745)"><path id="path96" d="M875,594.1l-76.7-13.2c-5.6-0.9-9.4-6.4-8.5-12l0,0 c0.9-5.6,6.4-9.4,12-8.5l76.7,13.2c5.6,0.9,9.4,6.4,8.5,12l0,0C885.9,591.3,880.6,595.1,875,594.1z" class="st9"/><circle id="circle98" cx="805.6" cy="571.5" r="5.7" class="st10"/><circle id="circle100" cx="828.2" cy="575.4" r="5.7" class="st10"/><circle id="circle102" cx="849" cy="516.8" r="4" class="st11"/><circle id="circle104" cx="851" cy="579.3" r="5.7" class="st10"/><circle id="circle106" cx="873.2" cy="583" r="5.7" class="st10"/><path id="path108" d="M871.6,570.9l-61.9-10.7l0.5-2.8c0.3-1.5,1.7-2.5,3.2-2.3 l56.4,9.8c1.5,0.3,2.5,1.7,2.3,3.2L871.6,570.9z" class="st12"/><path id="path110" d="M874.4,595.5l-76-13.2l-0.4,2.5c-0.3,1.7,0.8,3.3,2.5,3.6 l69.8,12c1.7,0.3,3.3-0.8,3.6-2.5L874.4,595.5z" class="st12"/><path id="path112" d="M860.3,600.3l-51.1-8.8l-0.5,3.1c-0.3,1.4,0.7,2.7,2.1,3l46,8 c1.4,0.3,2.7-0.7,3-2.1L860.3,600.3z" class="st13"/><path id="path114" d="M863.2,562.2l-44.2-7.6l2.3-13.3c1.3-7.3,8.3-12.3,15.6-11 l17.5,3.1c7.3,1.3,12.3,8.3,11,15.6L863.2,562.2z" class="st11"/><line id="line116" x1="848.1" x2="846.6" y1="522.1" y2="530.6" class="st11"/><line id="line118" x1="840.5" x2="829.8" y1="539.7" y2="549.5" class="st11"/><line id="line120" x1="854.8" x2="844.2" y1="542.6" y2="552.3" class="st11"/><path id="path122" d="M820.1,600.8l-6.8,8.7c-0.3,0.4,0.2,1,0.7,0.8l13.7-7.6 c0.4-0.3,0.3-0.8-0.2-0.9l-7-1.1C820.5,600.6,820.3,600.7,820.1,600.8L820.1,600.8z" class="st12"/><path id="path124" d="M810,599l-8.9,7c-0.4,0.3-0.1,1.1,0.5,0.8l15.5-5.9 c0.5-0.2,0.4-0.8-0.1-1l-6.6-1.2C810.3,598.8,810.1,598.9,810,599L810,599z" class="st12"/><path id="path126" d="M846.4,605.1l3.5,10.5c0.2,0.5-0.5,0.9-0.8,0.5l-10.4-11.8 c-0.3-0.3,0-0.9,0.5-0.8l6.9,1.3C846.3,604.9,846.4,605,846.4,605.1L846.4,605.1z" class="st12"/><path id="path128" d="M856.6,606.8l6,9.6c0.3,0.5-0.3,1-0.8,0.7l-12.7-10.7 c-0.4-0.3-0.1-1,0.4-0.8l6.6,1.2C856.4,606.6,856.5,606.7,856.6,606.8L856.6,606.8z" class="st12"/></g><g id="g166" transform="translate(6.564267,-535.67492)"><path id="path132" d="M331.5,670.9l-70.2,18.3c-5.1,1.3-10.4-1.8-11.7-6.9l0,0 c-1.3-5.1,1.8-10.4,6.9-11.7l70.2-18.3c5.1-1.3,10.4,1.8,11.7,6.9l0,0C339.7,664.2,336.7,669.6,331.5,670.9z" class="st14"/><circle id="circle134" cx="264.1" cy="678.3" r="5.3" class="st15"/><circle id="circle136" cx="284.7" cy="673" r="5.3" class="st15"/><circle id="circle138" cx="279.7" cy="615.2" r="3.7" class="st16"/><circle id="circle140" cx="305.5" cy="667.5" r="5.3" class="st15"/><circle id="circle142" cx="325.8" cy="662.1" r="5.3" class="st15"/><path id="path144" d="M319.7,652.5L263,667.3l-0.7-2.5c-0.4-1.4,0.5-2.8,1.9-3.2 l51.6-13.4c1.4-0.4,2.8,0.5,3.2,1.9L319.7,652.5z" class="st17"/><path id="path146" d="M331.5,672.3L262,690.4l0.6,2.2c0.4,1.6,2,2.5,3.5,2.1 l63.9-16.7c1.6-0.4,2.5-2,2.1-3.5L331.5,672.3z" class="st17"/><path id="path148" d="M321.5,681.8L274.8,694l0.7,2.8c0.4,1.3,1.7,2.1,2.9,1.7 l42.1-11c1.3-0.4,2.1-1.7,1.7-2.9L321.5,681.8z" class="st13"/><path id="path150" d="M309.3,648.2l-40.5,10.5l-3.2-12.2c-1.8-6.7,2.3-13.6,9-15.4 l16-4.2c6.7-1.8,13.6,2.3,15.4,9L309.3,648.2z" class="st16"/><line id="line152" x1="281" x2="283.1" y1="620.1" y2="627.9" class="st16"/><line id="line154" x1="281.4" x2="276.1" y1="637.9" y2="650.3" class="st16"/><line id="line156" x1="294.6" x2="289.3" y1="634.9" y2="647.3" class="st16"/><path id="path158" d="M287.6,697.6l-2.3,10.1c-0.1,0.5,0.6,0.8,0.8,0.4l8.7-11.7 c0.3-0.4-0.1-0.8-0.5-0.7l-6.3,1.8C287.8,697.3,287.6,697.4,287.6,697.6L287.6,697.6z" class="st17"/><path id="path160" d="M278.3,699.9l-4.8,9.3c-0.3,0.5,0.4,0.9,0.7,0.6l10.9-10.9 c0.4-0.4,0-0.9-0.5-0.8l-6.1,1.6C278.5,699.8,278.4,699.8,278.3,699.9L278.3,699.9z" class="st17"/><path id="path162" d="M311.6,691.2l7,7.6c0.4,0.4-0.1,0.9-0.6,0.7l-13.3-6.1 c-0.4-0.2-0.4-0.7,0.1-0.9l6.3-1.6C311.3,691,311.5,691.1,311.6,691.2z" class="st17"/><path id="path164" d="M320.8,688.7l8.8,5.8c0.5,0.3,0.1,1-0.4,0.8l-14.9-4.2 c-0.5-0.1-0.5-0.8,0-0.9l6.1-1.6C320.6,688.6,320.7,688.6,320.8,688.7z" class="st17"/></g><path id="path168" d="M241.1,524.1h-1c0.4-1.2,0.6-2.4,0.6-3.7c0-7-5.7-12.7-12.7-12.7h-3.3c-2.7,0-5.2,0.9-7.2,2.3c-1.2-0.8-2.7-1.3-4.3-1.3	c-0.7,0-1.4,0.1-2.1,0.3c-0.1-3.9-3.3-7.1-7.2-7.1h-0.3c-2.2,0-4.1,1-5.4,2.5l0,0c2.7-3.8,4.4-8.5,4.4-13.6	c0-13-10.6-23.5-23.5-23.5c-13,0-23.5,10.6-23.5,23.5c0,0.7,0,1.3,0.1,1.9c-2.9,0.3-5.7,1.3-8,2.9c-3.2-4.3-8.2-7.1-13.9-7.1l0,0	c-9.5,0-17.3,7.8-17.3,17.3c0,0.1,0,0.3,0,0.4c-1.8-0.9-3.7-1.5-5.9-1.5c-6.9,0-12.6,5.7-12.6,12.6c0,0.7,0.1,1.5,0.2,2.2H92	c-3,0-5.5,1.9-6.5,4.5h-9.9c-2.5,0-4.5,2-4.5,4.5s2,4.5,4.5,4.5h149.2h3.3h13.1c2.5,0,4.5-2,4.5-4.5	C245.6,526.1,243.6,524.1,241.1,524.1L241.1,524.1z" class="st18"/><path id="path170" d="M898.4,516.3h-0.9c0.3-1,0.5-2.1,0.5-3.3c0-6.2-5.1-11.3-11.3-11.3h-2.9c-2.4,0-4.6,0.8-6.4,2c-1.1-0.7-2.4-1.1-3.8-1.1	c-0.6,0-1.2,0.1-1.8,0.3c-0.1-3.5-2.9-6.3-6.4-6.3H865c-1.9,0-3.6,0.9-4.8,2.2l0,0c2.4-3.4,3.9-7.6,3.9-12	c0-11.5-9.4-20.9-20.9-20.9s-20.9,9.4-20.9,20.9c0,0.6,0,1.2,0.1,1.7c-2.6,0.2-5,1.2-7.1,2.6c-2.8-3.8-7.3-6.3-12.3-6.3l0,0	c-8.5,0-15.4,6.9-15.4,15.4c0,0.1,0,0.2,0,0.4c-1.6-0.8-3.3-1.4-5.2-1.4c-6.2,0-11.2,5-11.2,11.2c0,0.7,0.1,1.3,0.2,1.9h-5.5	c-2.6,0-4.9,1.7-5.8,4h-8.8c-2.2,0-4,1.8-4,4s1.8,4,4,4h132.5h2.9h11.6c2.2,0,4-1.8,4-4C902.4,518.1,900.6,516.3,898.4,516.3	L898.4,516.3z" class="st18"/><g id="g184" transform="translate(10.641067,-115.56078)"><g id="g178"><path id="path172" d="M149.5,586c2.4,4.6,6.2,8.3,10.8,10.8c3.6,1.9,7.6,3,11.9,3 c14.2,0,25.7-11.5,25.7-25.7c0-4.3-1.1-8.4-3-11.9c-2.4-4.6-6.2-8.3-10.8-10.8c-3.6-1.9-7.6-3-11.9-3c-14.2,0-25.7,11.5-25.7,25.7 C146.6,578.4,147.7,582.4,149.5,586z" class="st19"/><path id="path174" d="M194.1,562.5c-2.3-4.4-6-8.1-10.4-10.4 c-3.4-1.8-7.4-2.9-11.5-2.9c-9.5,0-17.7,5.3-21.8,13.1c4-2.8,8.9-4.4,14.1-4.4c4.2,0,8.1,1,11.5,2.9c4.4,2.3,8.1,6,10.4,10.4 c1.8,3.4,2.9,7.4,2.9,11.5c0,4.2-1.1,8.2-2.9,11.7c6.4-4.5,10.6-11.9,10.6-20.3C197,569.8,196,565.9,194.1,562.5L194.1,562.5z" class="st18"/><path id="path176" d="M149.5,586c-7.7,10-11.6,17.8-9.3,20.1s10.1-1.6,20.1-9.3 c5.6-4.4,12-9.9,18.3-16.3c6.4-6.4,11.9-12.7,16.3-18.3c7.7-10,11.6-17.8,9.3-20.1s-10.1,1.6-20.1,9.3" class="st20"/></g><path id="path180" d="M154,566.3c0.5-1.2,1.1-2.3,1.8-3.4c0.7-1.1,1.5-2,2.4-2.9 s1.9-1.7,2.9-2.4c1.1-0.7,2.2-1.3,3.4-1.8s2.4-0.9,3.7-1.2s2.6-0.4,4-0.4" class="st21"/><path id="path182" d="M152.4,574.1c0-1.4,0.1-2.7,0.4-4" class="st21"/></g><g id="g192" transform="translate(-0.2304,235.22748)"><polygon id="polygon186" points="843.4 216.1 850 204.1 856.6 216.1 868.7 222.7 856.6 229.3 850 241.4 843.4 229.3 831.4 222.7" class="st19"/><polygon id="polygon188" points="868.4 248.1 873.4 239.1 878.3 248.1 887.4 253.1 878.3 258 873.4 267.1 868.4 258 859.4 253.1" class="st19"/><polygon id="polygon190" points="884.1 207.8 887.4 201.7 890.7 207.8 896.7 211.1 890.7 214.4 887.4 220.4 884.1 214.4 878 211.1" class="st19"/></g><g class="st22"><path d="M332.8,346.5l65.5-89.9h24.1v89.6h17.5v20.8h-17.5v28.8h-27.9v-28.8h-61.7V346.5z M358.9,346.1h35.6v-34.4 c0-5.9,0.2-11.6,0.8-17h-0.9c-4.9,7.8-8,12.7-9.4,14.6L358.9,346.1z" class="st23"/><path d="M450.4,326.2c0-11.1,1.1-21,3.2-29.6c2.1-8.6,4.9-15.5,8.2-20.7c3.3-5.2,7.3-9.4,11.9-12.8 c4.6-3.3,9.1-5.6,13.5-6.8c4.4-1.2,9-1.8,13.7-1.8c16.3,0,28.8,6.4,37.5,19.1c8.7,12.7,13.1,30.3,13.1,52.6 c0,22.1-4.4,39.6-13.1,52.4c-8.7,12.8-21.2,19.2-37.4,19.2c-4.5,0-8.9-0.6-13.2-1.7c-4.3-1.1-8.7-3.3-13.4-6.6 c-4.6-3.2-8.7-7.4-12.1-12.5c-3.5-5.1-6.3-12-8.6-20.8C451.5,347.6,450.4,337.6,450.4,326.2z M479.4,326.2 c0,33.8,7.2,50.7,21.6,50.7c14.2,0,21.3-16.9,21.3-50.7c0-33.8-7.2-50.7-21.5-50.7C486.5,275.5,479.4,292.4,479.4,326.2z" class="st23"/><path d="M562.4,346.5l65.5-89.9h24.1v89.6h17.5v20.8h-17.5v28.8h-27.8v-28.8h-61.7V346.5z M588.5,346.1h35.6v-34.4 c0-5.9,0.2-11.6,0.8-17h-0.9c-4.9,7.8-8,12.7-9.4,14.6L588.5,346.1z" class="st23"/></g><g><path d="M435.8,197.2c0-6.4,1.6-11.6,4.9-15.5c3.2-3.9,7.5-5.9,12.8-5.9c5.3,0,9.6,2,12.8,5.9 c3.2,3.9,4.8,9.1,4.8,15.5c0,6.4-1.6,11.6-4.8,15.4c-3.2,3.9-7.5,5.8-12.8,5.8c-5.3,0-9.6-1.9-12.8-5.8 C437.5,208.8,435.8,203.6,435.8,197.2z M443.6,197.2c0,4.6,0.9,8.2,2.6,10.8c1.7,2.7,4.2,4,7.3,4c3.1,0,5.5-1.3,7.2-4 c1.7-2.7,2.6-6.3,2.6-10.9c0-4.6-0.9-8.2-2.6-10.8c-1.7-2.7-4.1-4-7.2-4c-3.1,0-5.5,1.3-7.2,4C444.5,189,443.6,192.7,443.6,197.2z" class="st23"/><path d="M474.8,202.7c0-4.4,1.2-8.2,3.5-11.2c2.3-3.1,5.8-4.6,10.4-4.6c3.1,0,5.7,0.8,7.9,2.3 c2.2,1.6,3.7,3.5,4.6,5.8c0.9,2.3,1.4,4.9,1.4,7.7c0,1.4-0.1,2.7-0.4,4c-0.2,1.3-0.7,2.7-1.3,4.2c-0.7,1.5-1.5,2.7-2.5,3.8 c-1,1.1-2.3,2-4,2.7c-1.7,0.7-3.6,1.1-5.7,1.1c-2.1,0-4-0.3-5.6-1c-1.7-0.7-3-1.5-4-2.6c-1-1.1-1.8-2.3-2.5-3.7 c-0.7-1.4-1.1-2.8-1.4-4.2C475,205.6,474.8,204.1,474.8,202.7z M482.3,202.7c0,3.4,0.6,5.8,1.9,7.3c1.3,1.5,2.8,2.3,4.5,2.3 c1.7,0,3.1-0.8,4.5-2.3c1.3-1.5,2-4,2-7.3c0-3.4-0.7-5.8-2-7.4c-1.3-1.5-2.8-2.3-4.5-2.3c-1.7,0-3.2,0.8-4.5,2.3 C482.9,196.8,482.3,199.3,482.3,202.7z" class="st23"/><path d="M507.9,229.5v-41.8h6.9v3.3c1.9-2.8,4.3-4.3,7.4-4.3c3.6,0,6.7,1.4,9.1,4.3c2.4,2.8,3.6,6.7,3.6,11.5 c0,2.8-0.4,5.2-1.2,7.3c-0.8,2.1-1.8,3.8-3.1,5c-1.3,1.2-2.6,2.1-4.1,2.7c-1.4,0.6-2.9,0.9-4.4,0.9c-1.8,0-3.3-0.4-4.5-1.2 c-1.2-0.8-2.1-1.7-2.7-2.7v14.9H507.9z M515,202.6c0,3,0.5,5.3,1.6,7.1c1.1,1.7,2.6,2.6,4.6,2.6c1.9,0,3.4-0.8,4.6-2.5 c1.1-1.7,1.7-4.1,1.7-7.2c0-3-0.6-5.3-1.7-7c-1.1-1.7-2.7-2.6-4.6-2.6c-2,0-3.5,0.9-4.6,2.7C515.6,197.4,515,199.8,515,202.6z" class="st23"/><path d="M537.8,211.3l5.1-3c2,3,4.6,4.5,7.9,4.5c1.5,0,2.6-0.3,3.4-0.9c0.8-0.6,1.2-1.4,1.2-2.3c0-0.3,0-0.6-0.1-0.8 c-0.1-0.3-0.2-0.5-0.4-0.7c-0.2-0.2-0.4-0.4-0.6-0.6c-0.2-0.2-0.4-0.4-0.8-0.6c-0.4-0.2-0.7-0.4-0.9-0.5c-0.2-0.1-0.6-0.3-1.1-0.5 c-0.5-0.2-0.9-0.3-1.2-0.4c-0.3-0.1-0.7-0.2-1.3-0.4c-0.6-0.2-1-0.3-1.3-0.4c-2.6-0.8-4.6-1.9-6.2-3.2c-1.6-1.3-2.3-3.2-2.3-5.7 c0-2.7,1.1-4.8,3.4-6.4c2.3-1.6,5-2.4,8.3-2.4c2.5,0,4.8,0.6,7,1.9c2.2,1.3,3.8,3,4.9,5l-4.8,2.9c-2.1-2.7-4.5-4-7.1-4 c-1.4,0-2.5,0.3-3.2,0.8c-0.8,0.6-1.1,1.3-1.1,2.2c0,0.3,0,0.6,0.1,0.9c0.1,0.3,0.2,0.5,0.4,0.8c0.2,0.2,0.4,0.4,0.6,0.6 c0.2,0.2,0.5,0.4,0.8,0.6c0.4,0.2,0.7,0.4,0.9,0.5c0.3,0.1,0.6,0.3,1.1,0.4c0.5,0.2,0.8,0.3,1.1,0.4c0.3,0.1,0.7,0.2,1.2,0.4 c0.5,0.2,0.9,0.3,1.2,0.4c5.9,2,8.9,4.9,8.9,8.9c0,2.5-1,4.6-3.1,6.4c-2.1,1.7-5,2.6-8.8,2.6c-2.9,0-5.6-0.7-7.9-2 S539.1,213.4,537.8,211.3z" class="st23"/><path d="M568.2,217.7v-8.3h9.3v8.3H568.2z M576.4,205.9h-7l-0.5-29.4h8L576.4,205.9z" class="st23"/></g><g><path d="M333.4,464.8v-27.1h12c3.2,0,5.7,0.8,7.5,2.3c1.8,1.5,2.7,3.6,2.7,6.1c0,2.6-0.9,4.6-2.8,6.1 s-4.3,2.2-7.4,2.2H339v10.3H333.4z M339,450.2h5.7c1.6,0,2.9-0.4,3.8-1.1c0.9-0.7,1.4-1.7,1.4-3c0-1.3-0.4-2.3-1.3-3 c-0.9-0.7-2.2-1.1-3.8-1.1H339V450.2z" class="st23"/><path d="M354.1,464.8l10.8-27.1h6l10.8,27.1h-5.9l-2.3-6.4h-11.2l-2.3,6.4H354.1z M363.7,454.4h8.3l-2.2-6.4 c-0.5-1.5-1.1-3.3-1.8-5.5h-0.2c-0.2,0.7-0.5,1.6-0.9,2.8c-0.4,1.2-0.7,2.1-0.9,2.6L363.7,454.4z" class="st23"/><path d="M383,451.2c0-4.1,1.3-7.5,3.8-10.2c2.5-2.6,5.9-4,10-4c1.3,0,2.5,0.2,3.7,0.5c1.2,0.3,2.1,0.7,2.9,1.2 c0.8,0.5,1.5,1,2.2,1.7c0.7,0.6,1.2,1.2,1.5,1.7c0.4,0.5,0.7,1,0.9,1.5l-4.8,1.4c-0.4-0.5-0.8-1-1.1-1.3c-0.3-0.3-0.7-0.7-1.2-1.2 s-1.1-0.8-1.8-1s-1.4-0.3-2.3-0.3c-2.5,0-4.5,0.9-5.9,2.7c-1.4,1.8-2.1,4.2-2.1,7.2c0,3,0.7,5.4,2.2,7.2c1.5,1.8,3.3,2.7,5.6,2.7 c2,0,3.5-0.5,4.6-1.4c1.1-1,1.8-2.2,2-3.8c0.1-1.3,0.2-2,0.2-2.1h-7.1v-4.3h12.5v15.3H405l-0.5-2.4c-1.7,2-4.4,3-8,3 c-3.8,0-7-1.3-9.6-3.8C384.3,459,383,455.5,383,451.2z" class="st23"/><path d="M413.9,464.8v-27.1H434v4.3h-14.6v6.7h13.1v4.2h-13.1v7.6h14.9v4.3H413.9z" class="st23"/><path d="M448.1,464.8v-27.1h5.8l8.5,14.1l3.3,5.5h0.2c-0.4-2.6-0.6-5.2-0.6-7.9v-11.7h5.6v27.1h-5.8l-8.5-13.8 l-3.3-5.7h-0.2c0.4,2.5,0.6,5.1,0.6,7.9v11.6H448.1z" class="st23"/><path d="M475.4,451.3c0-4.3,1.2-7.7,3.6-10.3c2.4-2.6,5.6-3.9,9.5-3.9c4,0,7.1,1.3,9.5,3.9c2.4,2.6,3.6,6,3.6,10.3 c0,4.3-1.2,7.7-3.6,10.3c-2.4,2.6-5.6,3.9-9.5,3.9s-7.1-1.3-9.5-3.9C476.6,458.9,475.4,455.5,475.4,451.3z M481.2,451.3 c0,3,0.6,5.4,1.9,7.2c1.3,1.8,3.1,2.7,5.4,2.7c2.3,0,4.1-0.9,5.4-2.6c1.3-1.8,1.9-4.2,1.9-7.2c0-3-0.6-5.4-1.9-7.2 c-1.3-1.8-3.1-2.7-5.4-2.7c-2.3,0-4.1,0.9-5.4,2.7C481.9,445.8,481.2,448.2,481.2,451.3z" class="st23"/><path d="M502.7,442v-4.3h22.7v4.3h-8.6v22.8h-5.6V442H502.7z" class="st23"/><path d="M538.3,464.8v-27.1h19.6v4.3h-13.9v7.1h12.5v4.2h-12.5v11.4H538.3z" class="st23"/><path d="M559.9,451.3c0-4.3,1.2-7.7,3.6-10.3c2.4-2.6,5.6-3.9,9.5-3.9c4,0,7.1,1.3,9.5,3.9c2.4,2.6,3.6,6,3.6,10.3 c0,4.3-1.2,7.7-3.6,10.3c-2.4,2.6-5.6,3.9-9.5,3.9c-4,0-7.1-1.3-9.5-3.9C561.1,458.9,559.9,455.5,559.9,451.3z M565.7,451.3 c0,3,0.6,5.4,1.9,7.2c1.3,1.8,3.1,2.7,5.4,2.7c2.3,0,4.1-0.9,5.4-2.6c1.3-1.8,1.9-4.2,1.9-7.2c0-3-0.6-5.4-1.9-7.2 c-1.3-1.8-3.1-2.7-5.4-2.7c-2.3,0-4.1,0.9-5.4,2.7C566.3,445.8,565.7,448.2,565.7,451.3z" class="st23"/><path d="M590.5,454.6v-16.9h5.6v16.9c0,4.4,1.9,6.5,5.7,6.5c3.8,0,5.7-2.2,5.7-6.5v-16.9h5.6v16.9 c0,3.5-0.9,6.2-2.8,8c-1.9,1.9-4.7,2.8-8.5,2.8c-3.6,0-6.4-0.9-8.4-2.7S590.5,458.2,590.5,454.6z" class="st23"/><path d="M619.3,464.8v-27.1h5.8l8.5,14.1l3.3,5.5h0.2c-0.4-2.6-0.6-5.2-0.6-7.9v-11.7h5.6v27.1h-5.8l-8.5-13.8 l-3.3-5.7h-0.2c0.4,2.5,0.6,5.1,0.6,7.9v11.6H619.3z" class="st23"/><path d="M648.3,464.8v-27.1h9.2c4.6,0,8.2,1.2,10.7,3.5s3.7,5.7,3.7,10c0,1.4-0.1,2.8-0.4,4c-0.3,1.3-0.8,2.5-1.4,3.7 c-0.7,1.2-1.6,2.2-2.6,3c-1.1,0.8-2.4,1.5-4.1,2c-1.7,0.5-3.6,0.8-5.8,0.8H648.3z M653.9,460.5h3c3,0,5.3-0.7,6.8-2.2 c1.5-1.5,2.3-3.8,2.3-7.1c0-3.3-0.8-5.7-2.4-7.2s-3.8-2.1-6.7-2.1h-3.1V460.5z" class="st23"/></g></svg>