<svg xmlns="http://www.w3.org/2000/svg" xmlns:svg="http://www.w3.org/2000/svg" id="图层_1" x="0" y="0" version="1.1" viewBox="0 0 194 256" xml:space="preserve" style="enable-background:new 0 0 194 256"><metadata id="metadata4574"/><style id="style4481" type="text/css">.st0{fill:#fff;stroke:#000;stroke-width:1.1382;stroke-miterlimit:10}.st1{font-family:&apos;HelveticaNeue-Bold&apos;}.st2{font-size:20px}</style><g id="g4567"><g id="g4564" transform="translate(0,-0.32694764)"><path id="XMLID_290_" d="m 35.4,194.6 h 126.8 c 1.9,0 3.4,-1.5 3.4,-3.4 V 64.8 c 0,-1.9 -1.5,-3.4 -3.4,-3.4 H 35.4 c -1.9,0 -3.4,1.5 -3.4,3.4 v 126.4 c 0,1.9 1.5,3.4 3.4,3.4 z" class="st0" style="fill:#fff;stroke:#000;stroke-width:1.13820004;stroke-miterlimit:10"/><circle id="XMLID_245_" cx="52.3" cy="84.9" r="2.6"/><g id="g4562"><g id="ESP32_3_"><g id="XMLID_202_"><g id="XMLID_234_"><rect id="XMLID_238_" width="6.1" height="4" x="32" y="74.9"/><rect id="XMLID_237_" width="6.1" height="4" x="32" y="83"/><rect id="XMLID_236_" width="6.1" height="4" x="32" y="91.1"/><rect id="XMLID_235_" width="6.1" height="4" x="32" y="99"/></g><g id="XMLID_229_"><rect id="XMLID_233_" width="6.1" height="4" x="31.9" y="107.3"/><rect id="XMLID_232_" width="6.1" height="4" x="32" y="115.3"/><rect id="XMLID_231_" width="6.1" height="4" x="32" y="123.4"/><rect id="XMLID_230_" width="6.1" height="4" x="31.9" y="131.4"/></g><g id="XMLID_224_"><rect id="XMLID_228_" width="6.1" height="4" x="159.6" y="138.7"/><rect id="XMLID_227_" width="6.1" height="4" x="159.6" y="146.8"/><rect id="XMLID_226_" width="6.1" height="4" x="159.6" y="154.9"/><rect id="XMLID_225_" width="6.1" height="4" x="159.6" y="162.8"/></g><g id="XMLID_219_"><rect id="XMLID_223_" width="6.1" height="4" x="32.1" y="138.9"/><rect id="XMLID_222_" width="6.1" height="4" x="32.2" y="147"/><rect id="XMLID_221_" width="6.1" height="4" x="32.2" y="155.1"/><rect id="XMLID_220_" width="6.1" height="4" x="32.1" y="163"/><rect id="XMLID_5_" width="6.1" height="4" x="159.5" y="170.8"/><rect id="XMLID_4_" width="6.1" height="4" x="159.4" y="178.7"/><rect id="XMLID_3_" width="6.1" height="4" x="32" y="171"/><rect id="XMLID_2_" width="6.1" height="4" x="32" y="178.9"/></g><g id="XMLID_203_"><g id="XMLID_214_"><rect id="XMLID_218_" width="6.1" height="4" x="159.4" y="74.7"/><rect id="XMLID_217_" width="6.1" height="4" x="159.5" y="82.8"/><rect id="XMLID_216_" width="6.1" height="4" x="159.5" y="90.9"/><rect id="XMLID_215_" width="6.1" height="4" x="159.4" y="98.8"/></g><g id="XMLID_204_"><rect id="XMLID_208_" width="6.1" height="4" x="159.4" y="107.1"/><rect id="XMLID_207_" width="6.1" height="4" x="159.4" y="115.2"/><rect id="XMLID_206_" width="6.1" height="4" x="159.4" y="123.3"/><rect id="XMLID_205_" width="6.1" height="4" x="159.4" y="131.2"/></g></g></g><g id="XMLID_1_"><g id="g4538"><g id="XMLID_197_"><rect id="XMLID_201_" width="6.1" height="4" x="131.7" y="63" transform="matrix(0.0020298,-1,1,0.0020298,69.5107,199.5732)"/><rect id="XMLID_200_" width="6.1" height="4" x="123.6" y="63" transform="matrix(0.0020298,-1,1,0.0020298,61.4343,191.5587)"/><rect id="XMLID_8_" width="6.1" height="4" x="148.2" y="63" transform="matrix(0.0020298,-1,1,0.0020298,85.934,216.1473)"/><rect id="XMLID_6_" width="6.1" height="4" x="140.1" y="63.1" transform="matrix(0.0020298,-1,1,0.0020298,77.8577,208.133)"/><rect id="XMLID_199_" width="6.1" height="4" x="115.6" y="63" transform="matrix(0.0020298,-1,1,0.0020298,53.4375,183.5322)"/><rect id="XMLID_198_" width="6.1" height="4" x="107.6" y="62.9" transform="matrix(0.0020298,-1,1,0.0020298,45.5019,175.4751)"/></g><g id="XMLID_192_"><rect id="XMLID_196_" width="6.1" height="4" x="99.4" y="63" transform="matrix(0.0020298,-1,1,0.0020298,37.341,167.3362)"/><rect id="XMLID_195_" width="6.1" height="4" x="91.2" y="63.1" transform="matrix(0.0020298,-1,1,0.0020298,28.9647,159.1487)"/><rect id="XMLID_194_" width="6.1" height="4" x="83.2" y="62.9" transform="matrix(0.0020298,-1,1,0.0020298,21.1498,151.1043)"/><rect id="XMLID_193_" width="6.1" height="4" x="75.3" y="63" transform="matrix(0.0020298,-1,1,0.0020298,13.1321,143.22)"/></g><g id="XMLID_187_"><rect id="XMLID_191_" width="6.1" height="4" x="67.7" y="62.9" transform="matrix(0.0020298,-1,1,0.0020298,5.6547,135.5718)"/><rect id="XMLID_190_" width="6.1" height="4" x="59.6" y="63" transform="matrix(0.0020298,-1,1,0.0020298,-2.4758,127.4483)"/><rect id="XMLID_189_" width="6.1" height="4" x="51.5" y="63" transform="matrix(0.0020298,-1,1,0.0020298,-10.4995,119.3949)"/><rect id="XMLID_188_" width="6.1" height="4" x="43.7" y="63" transform="matrix(0.0020298,-1,1,0.0020298,-18.4261,111.6195)"/></g></g><g id="g4558"><g id="XMLID_182_"><rect id="XMLID_186_" width="6.1" height="4" x="69" y="189.5" transform="matrix(0.00164156,-1,1,0.00164156,-119.5973,263.2231)"/><rect id="XMLID_185_" width="6.1" height="4" x="61" y="189.5" transform="matrix(0.00164156,-1,1,0.00164156,-127.5915,255.2397)"/><rect id="XMLID_184_" width="6.1" height="4" x="52.8" y="189.5" transform="matrix(0.00164156,-1,1,0.00164156,-135.7702,247.0334)"/><rect id="XMLID_183_" width="6.1" height="4" x="45" y="189.5" transform="matrix(0.00164156,-1,1,0.00164156,-143.534,239.2068)"/></g><g id="XMLID_80_"><g id="XMLID_113_"><rect id="XMLID_181_" width="6.1" height="4" x="132.9" y="189.4" transform="matrix(0.00164156,-1,1,0.00164156,-55.6492,327.0911)"/><rect id="XMLID_180_" width="6.1" height="4" x="124.9" y="189.4" transform="matrix(0.00164156,-1,1,0.00164156,-63.6435,319.1077)"/><rect id="XMLID_10_" width="6.1" height="4" x="149" y="189.5" transform="matrix(0.00164156,-1,1,0.00164156,-39.6368,343.2227)"/><rect id="XMLID_9_" width="6.1" height="4" x="140.9" y="189.5" transform="matrix(0.00164156,-1,1,0.00164156,-47.731,335.1388)"/><rect id="XMLID_179_" width="6.1" height="4" x="116.9" y="189.4" transform="matrix(0.00164156,-1,1,0.00164156,-71.6223,311.1023)"/><rect id="XMLID_178_" width="6.1" height="4" x="108.9" y="189.4" transform="matrix(0.00164156,-1,1,0.00164156,-79.5859,303.0748)"/></g><g id="XMLID_101_"><rect id="XMLID_112_" width="6.1" height="4" x="100.6" y="189.3" transform="matrix(0.00164156,-1,1,0.00164156,-87.7842,294.6831)"/><rect id="XMLID_111_" width="6.1" height="4" x="92.5" y="189.3" transform="matrix(0.00164156,-1,1,0.00164156,-95.8785,286.5992)"/><rect id="XMLID_109_" width="6.1" height="4" x="84.5" y="189.3" transform="matrix(0.00164156,-1,1,0.00164156,-103.8574,278.5938)"/><rect id="XMLID_102_" width="6.1" height="4" x="76.5" y="189.3" transform="matrix(0.00164156,-1,1,0.00164156,-111.8207,270.5662)"/></g></g></g></g></g></g></g><text id="XMLID_244_" x="57.908" y="125.968" class="st1 st2" transform="scale(0.98853428,1.0115987)" style="font-style:normal;font-variant:normal;font-weight:400;font-stretch:normal;font-size:28px;font-family:'DejaVu Sans';-inkscape-font-specification:'DejaVu Sans, Normal';font-variant-ligatures:normal;font-variant-caps:normal;font-variant-numeric:normal;font-feature-settings:normal;text-align:start;writing-mode:lr-tb;text-anchor:start;stroke-width:1.35401452">ESP32</text><text id="XMLID_244_-5" x="83.829" y="154.296" class="st1 st2" transform="scale(0.98853428,1.0115987)" style="font-style:normal;font-variant:normal;font-weight:400;font-stretch:normal;font-size:28px;font-family:'DejaVu Sans';-inkscape-font-specification:'DejaVu Sans, Normal';font-variant-ligatures:normal;font-variant-caps:normal;font-variant-numeric:normal;font-feature-settings:normal;text-align:start;writing-mode:lr-tb;text-anchor:start;stroke-width:1.33264875">S2</text></g></svg>