<svg xmlns="http://www.w3.org/2000/svg" xmlns:svg="http://www.w3.org/2000/svg" id="图层_1" x="0" y="0" version="1.1" viewBox="0 0 167 224" xml:space="preserve" style="enable-background:new 0 0 167 224"><metadata id="metadata4142"/><style id="style4056" type="text/css">.st0{fill:#fff;stroke:#000;stroke-width:.9997;stroke-miterlimit:10}.st1{font-family:&apos;HelveticaNeue-Bold&apos;}.st2{font-size:20px}</style><g id="g4135"><g id="g4131"><path id="XMLID_388_" d="M27.8,171.7H141c1.9,0,3.4-1.5,3.4-3.4V59.8c0-1.9-1.5-3.4-3.4-3.4H27.8 c-1.9,0-3.4,1.5-3.4,3.4v108.5C24.5,170.2,26,171.7,27.8,171.7z" class="st0"/><circle id="XMLID_352_" cx="45.8" cy="78.2" r="2.6"/><g id="g4129"><g id="ESP32_11_"><g id="XMLID_320_"><g id="XMLID_347_"><rect id="XMLID_351_" width="6.1" height="4" x="24.5" y="68.4"/><rect id="XMLID_350_" width="6.1" height="4" x="24.5" y="76.5"/><rect id="XMLID_349_" width="6.1" height="4" x="24.5" y="84.5"/><rect id="XMLID_348_" width="6.1" height="4" x="24.5" y="92.4"/></g><g id="XMLID_342_"><rect id="XMLID_346_" width="6.1" height="4" x="24.4" y="100.7"/><rect id="XMLID_345_" width="6.1" height="4" x="24.5" y="108.8"/><rect id="XMLID_344_" width="6.1" height="4" x="24.5" y="116.8"/><rect id="XMLID_343_" width="6.1" height="4" x="24.4" y="124.7"/></g><g id="XMLID_337_"><rect id="XMLID_341_" width="6.1" height="4" x="138.4" y="132.1"/><rect id="XMLID_340_" width="6.1" height="4" x="138.4" y="140.2"/><rect id="XMLID_339_" width="6.1" height="4" x="138.4" y="148.2"/><rect id="XMLID_338_" width="6.1" height="4" x="138.3" y="156.1"/></g><g id="XMLID_332_"><rect id="XMLID_336_" width="6.1" height="4" x="24.6" y="132.2"/><rect id="XMLID_335_" width="6.1" height="4" x="24.7" y="140.3"/><rect id="XMLID_334_" width="6.1" height="4" x="24.7" y="148.3"/><rect id="XMLID_333_" width="6.1" height="4" x="24.6" y="156.2"/></g><g id="XMLID_321_"><g id="XMLID_327_"><rect id="XMLID_331_" width="6.1" height="4" x="138.2" y="68.3"/><rect id="XMLID_330_" width="6.1" height="4" x="138.3" y="76.4"/><rect id="XMLID_329_" width="6.1" height="4" x="138.2" y="84.4"/><rect id="XMLID_328_" width="6.1" height="4" x="138.2" y="92.3"/></g><g id="XMLID_322_"><rect id="XMLID_326_" width="6.1" height="4" x="138.1" y="100.5"/><rect id="XMLID_325_" width="6.1" height="4" x="138.2" y="108.6"/><rect id="XMLID_324_" width="6.1" height="4" x="138.2" y="116.6"/><rect id="XMLID_323_" width="6.1" height="4" x="138.1" y="124.5"/></g></g></g><g id="XMLID_253_"><g id="g4107"><g id="XMLID_315_"><rect id="XMLID_319_" width="6.1" height="4" x="124.8" y="57.6" transform="matrix(2.029807e-03 -1 1 2.029807e-03 68.0236 187.2669)"/><rect id="XMLID_318_" width="6.1" height="4" x="116.7" y="57.5" transform="matrix(2.029807e-03 -1 1 2.029807e-03 60.0144 179.2086)"/><rect id="XMLID_317_" width="6.1" height="4" x="108.7" y="57.5" transform="matrix(2.029807e-03 -1 1 2.029807e-03 52.0385 171.2044)"/><rect id="XMLID_316_" width="6.1" height="4" x="100.8" y="57.5" transform="matrix(2.029807e-03 -1 1 2.029807e-03 44.1775 163.2546)"/></g><g id="XMLID_310_"><rect id="XMLID_314_" width="6.1" height="4" x="92.6" y="57.5" transform="matrix(2.029807e-03 -1 1 2.029807e-03 35.9639 155.0762)"/><rect id="XMLID_313_" width="6.1" height="4" x="84.5" y="57.6" transform="matrix(2.029807e-03 -1 1 2.029807e-03 27.719 146.9815)"/><rect id="XMLID_312_" width="6.1" height="4" x="76.5" y="57.6" transform="matrix(2.029807e-03 -1 1 2.029807e-03 19.8245 138.9776)"/><rect id="XMLID_311_" width="6.1" height="4" x="68.6" y="57.6" transform="matrix(2.029807e-03 -1 1 2.029807e-03 11.9091 131.0549)"/></g><g id="XMLID_305_"><rect id="XMLID_309_" width="6.1" height="4" x="61.1" y="57.5" transform="matrix(2.029807e-03 -1 1 2.029807e-03 4.4798 123.48)"/><rect id="XMLID_308_" width="6.1" height="4" x="53" y="57.5" transform="matrix(2.029807e-03 -1 1 2.029807e-03 -3.6109 115.3942)"/><rect id="XMLID_307_" width="6.1" height="4" x="44.9" y="57.5" transform="matrix(2.029807e-03 -1 1 2.029807e-03 -11.614 107.3901)"/><rect id="XMLID_306_" width="6.1" height="4" x="37.1" y="57.6" transform="matrix(2.029807e-03 -1 1 2.029807e-03 -19.5296 99.5759)"/></g></g><g id="g4125"><g id="XMLID_300_"><rect id="XMLID_304_" width="6.1" height="4" x="61.4" y="166.7" transform="matrix(1.641559e-03 -1 1 1.641559e-03 -104.2837 232.8491)"/><rect id="XMLID_303_" width="6.1" height="4" x="53.3" y="166.7" transform="matrix(1.641559e-03 -1 1 1.641559e-03 -112.438 224.7634)"/><rect id="XMLID_302_" width="6.1" height="4" x="45.3" y="166.7" transform="matrix(1.641559e-03 -1 1 1.641559e-03 -120.3961 216.7593)"/><rect id="XMLID_301_" width="6.1" height="4" x="37.4" y="166.6" transform="matrix(1.641559e-03 -1 1 1.641559e-03 -128.2575 208.7366)"/></g><g id="XMLID_254_"><g id="XMLID_293_"><rect id="XMLID_299_" width="6.1" height="4" x="125.2" y="166.6" transform="matrix(1.641559e-03 -1 1 1.641559e-03 -40.5481 296.5365)"/><rect id="XMLID_298_" width="6.1" height="4" x="117.1" y="166.6" transform="matrix(1.641559e-03 -1 1 1.641559e-03 -48.7024 288.4508)"/><rect id="XMLID_295_" width="6.1" height="4" x="109.1" y="166.6" transform="matrix(1.641559e-03 -1 1 1.641559e-03 -56.6605 280.4467)"/><rect id="XMLID_294_" width="6.1" height="4" x="101.1" y="166.5" transform="matrix(1.641559e-03 -1 1 1.641559e-03 -64.5219 272.424)"/></g><g id="XMLID_255_"><rect id="XMLID_292_" width="6.1" height="4" x="92.9" y="166.4" transform="matrix(1.641559e-03 -1 1 1.641559e-03 -72.582 264.1373)"/><rect id="XMLID_291_" width="6.1" height="4" x="84.8" y="166.5" transform="matrix(1.641559e-03 -1 1 1.641559e-03 -80.7363 256.0515)"/><rect id="XMLID_257_" width="6.1" height="4" x="76.8" y="166.4" transform="matrix(1.641559e-03 -1 1 1.641559e-03 -88.6944 248.0474)"/><rect id="XMLID_256_" width="6.1" height="4" x="68.9" y="166.5" transform="matrix(1.641559e-03 -1 1 1.641559e-03 -96.656 240.1245)"/></g></g></g></g></g></g></g><g id="ESP32_10_"><text id="XMLID_252_" x="85.622" y="123.019" class="st1 st2" transform="scale(0.98853428,1.0115987)" style="font-style:normal;font-variant:normal;font-weight:400;font-stretch:normal;font-size:28px;font-family:'DejaVu Sans';-inkscape-font-specification:'DejaVu Sans, Normal';font-variant-ligatures:normal;font-variant-caps:normal;font-variant-numeric:normal;font-feature-settings:normal;text-align:center;writing-mode:lr-tb;text-anchor:middle;stroke-width:.98853427">ESP32</text></g></g></svg>